<svg width="173" height="40" viewBox="0 0 173 40" fill="none" xmlns="http://www.w3.org/2000/svg">
<path d="M22.0916 39.9694C15.2809 39.9688 8.53568 39.9262 1.79172 39.9998C0.300163 40.0162 -0.429027 38.4571 0.263349 37.2542C1.2876 35.4746 2.31089 33.6923 3.40743 31.9571C4.28348 30.5709 5.48148 29.4971 7.09228 29.0347C7.73363 28.8507 8.43615 28.8237 9.11112 28.8216C14.9331 28.804 20.755 28.8082 26.5771 28.8062C26.7307 28.8062 26.8863 28.7966 27.0377 28.8162C27.7969 28.9146 27.9422 29.1842 27.5724 29.8501C27.2326 30.4619 26.8665 31.059 26.5122 31.6627C26.2779 32.0619 25.93 32.2126 25.4689 32.2115C20.1085 32.1976 14.7479 32.1838 9.38739 32.1928C7.91352 32.1952 6.70449 32.6678 6.04237 34.1526C5.78319 34.7338 5.39968 35.351 5.03544 35.9382C4.85033 36.2368 5.06473 36.6163 5.41575 36.6166C12.3143 36.6237 19.2129 36.6299 26.1113 36.6211C26.9904 36.62 27.7232 36.2683 28.1913 35.4795C30.1781 32.131 32.1682 28.7845 34.1424 25.4285C34.2687 25.2139 34.4826 25.0382 34.5765 24.8C34.6419 24.6339 34.5503 24.44 34.3762 24.4018C34.2048 24.364 34.0255 24.4022 33.857 24.4022C26.3652 24.3976 18.8735 24.3989 11.3818 24.3984C9.60997 24.3982 8.78007 22.9845 9.67802 21.4554C11.1063 19.0232 12.5592 16.6054 14.003 14.1824C14.3537 13.5939 14.8048 13.2389 15.5613 13.3276C16.1008 13.391 16.6576 13.2897 17.205 13.3083C18.0779 13.338 18.2707 13.7479 17.8238 14.4864C16.5898 16.5259 15.3705 18.5746 14.1476 20.6208C14.1266 20.6558 14.1019 20.6912 14.0833 20.7294C14.021 20.8576 14.1426 20.9886 14.2824 21.0157C14.4805 21.0539 14.6922 21.017 14.8958 21.0171C22.3435 21.0234 29.7915 21.0376 37.2391 21.0074C38.1371 21.0037 38.7328 21.3827 39.1202 22.0762C39.4867 22.7323 39.3131 23.4032 38.9205 24.0581C37.2781 26.7987 35.6749 29.5627 34.0445 32.3106C33.0393 34.0046 32.084 35.7349 30.9728 37.3574C29.8617 38.98 28.3485 40.0355 26.2437 39.976C24.8827 39.9374 23.5197 39.9691 22.0916 39.9694Z" fill="url(#paint0_linear_565_3383)"/>
<path d="M28.3647 6.09181C28.2364 4.50822 27.7369 3.72397 26.6541 3.46531C25.4282 3.17248 24.4164 3.4255 23.6432 4.7316C22.4381 6.76717 21.2303 8.80125 20.0197 10.8335C19.7245 11.3288 19.3575 11.6232 18.7009 11.62C13.2745 11.5937 7.84782 11.5999 2.42125 11.6124C1.74444 11.6139 1.2497 11.3466 0.843102 10.8352C0.242881 10.0801 0.490493 9.37211 0.922736 8.65322C2.14942 6.61301 3.27968 4.50805 4.61531 2.54235C5.62644 1.05426 7.08047 0.0615672 9.00144 0.0564362C12.4287 0.0472891 15.8561 0.0515669 19.2834 0.0579453C19.5547 0.0584525 19.8821 -0.0477086 20.0671 0.256174C20.2713 0.592059 19.9937 0.834563 19.8478 1.09072C19.6746 1.39469 19.4258 1.66554 19.3027 1.9864C18.8528 3.15917 18.0084 3.44874 16.8067 3.40755C14.3709 3.32411 11.9301 3.39491 9.49152 3.38322C8.47302 3.37834 7.77415 3.79859 7.253 4.69285C6.58441 5.84011 5.83751 6.94163 5.22297 8.13019C5.48876 8.28902 5.73473 8.22654 5.96761 8.22688C9.59264 8.232 13.2177 8.22166 16.8427 8.24142C17.3812 8.24435 17.7021 8.11101 17.9857 7.60398C18.8828 6.00045 19.7768 4.38483 20.8199 2.87621C21.9909 1.18259 23.4827 0.0656035 25.7621 0.00212829C28.3543 -0.0700677 30.5535 1.70462 31.3788 3.78502C32.1033 5.61086 31.752 7.3051 30.8058 8.92008C28.957 12.0755 27.0744 15.2111 25.2162 18.3608C24.8573 18.9691 24.4489 19.3563 23.6507 19.2838C22.7466 19.2018 21.8291 19.2648 20.7224 19.2648C23.2267 14.6996 26.1273 10.6141 28.3647 6.09181Z" fill="url(#paint1_linear_565_3383)"/>
<path d="M50.3166 1.2392C50.5646 2.40197 49.8071 3.15266 49.3333 3.99133C48.4295 5.59132 47.5736 7.23007 46.5294 8.73592C45.3383 10.4534 43.7143 11.6028 41.4943 11.6041C38.5288 11.6059 35.5632 11.6066 32.5977 11.6032C31.5821 11.6021 31.4155 11.3083 31.9318 10.4259C32.2298 9.91666 32.553 9.42221 32.8598 8.91815C33.1569 8.43029 33.5464 8.20868 34.1565 8.2174C36.5943 8.25224 39.0331 8.24901 41.4711 8.2233C42.4501 8.21298 43.2278 7.78137 43.7354 6.90297C44.2935 5.9377 44.8811 4.98961 45.4429 4.02661C45.5491 3.84487 45.6986 3.66909 45.6906 3.31493C44.8377 3.31493 43.9902 3.30937 43.1426 3.31594C40.2655 3.33828 37.3887 3.36637 34.5116 3.38721C34.2721 3.38895 34.0105 3.40682 33.7975 3.32154C33.4683 3.1898 33.0924 2.94295 33.3772 2.53837C33.8572 1.85618 34.1611 1.069 34.7024 0.425458C34.9217 0.164522 35.1625 0.0521922 35.4954 0.0525061C39.9107 0.0566753 44.3261 0.0528724 48.7416 0.0565506C49.5252 0.0572025 49.9427 0.591967 50.3166 1.2392Z" fill="url(#paint2_linear_565_3383)"/>
<path d="M73.184 9.8048H67.121V16.64H63.2837V9.8048H57.2207V6.8096H73.184V9.8048ZM88.2358 12.9536C89.0442 13.0355 89.6019 13.1942 89.9087 13.4298C90.226 13.6653 90.3847 14.0339 90.3847 14.5357V16.64H86.5474V14.9965C86.5474 14.679 86.4603 14.4435 86.2863 14.2899C86.1125 14.1363 85.8106 14.0288 85.3808 13.9674C84.9613 13.9059 84.3269 13.8752 83.4775 13.8752H77.7828V16.64H73.9454V6.8096H85.8106C87.3251 6.8096 88.5223 7.07584 89.4022 7.60832C90.2925 8.13056 90.7378 8.99072 90.7378 10.1888C90.7378 11.0387 90.5178 11.6787 90.0778 12.1088C89.6377 12.5286 89.0238 12.8102 88.2358 12.9536ZM85.8106 11.3101C86.1483 11.3101 86.4144 11.2589 86.6088 11.1565C86.8032 11.0438 86.9004 10.8493 86.9004 10.5728C86.9004 10.112 86.5372 9.8816 85.8106 9.8816H77.7828V11.3101H85.8106ZM103.484 15.1501H96.362L95.395 16.64H91.1739L97.7588 6.8096H102.026L108.672 16.64H104.451L103.484 15.1501ZM101.995 12.8461L99.9077 9.62048L97.8356 12.8461H101.995ZM120.187 6.8096C124.812 6.8096 127.125 8.448 127.125 11.7248C127.125 12.6464 126.899 13.4758 126.449 14.2131C125.999 14.9402 125.257 15.529 124.224 15.9795C123.19 16.4198 121.844 16.64 120.187 16.64H109.135V6.8096H120.187ZM120.033 13.568C121.159 13.568 121.957 13.4195 122.428 13.1226C122.898 12.8256 123.134 12.3597 123.134 11.7248C123.134 11.0899 122.898 10.624 122.428 10.327C121.957 10.0301 121.159 9.8816 120.033 9.8816H112.972V13.568H120.033ZM132.416 6.8096V16.64H128.579V6.8096H132.416ZM151.832 6.8096V16.64H147.995L137.864 10.7725V16.64H134.027V6.8096H137.864L147.995 12.7846V6.8096H151.832ZM168.622 16.64C168.622 16.0051 168.811 15.1194 169.189 13.9827C168.667 14.8941 167.803 15.616 166.594 16.1485C165.387 16.681 163.908 16.9472 162.159 16.9472C159.243 16.9472 156.997 16.5683 155.421 15.8106C153.845 15.0426 153.057 13.7062 153.057 11.8016C153.057 9.87648 153.876 8.51456 155.513 7.71584C157.16 6.90688 159.529 6.5024 162.62 6.5024C165.413 6.5024 167.557 6.89152 169.05 7.66976C170.545 8.43776 171.334 9.52832 171.415 10.9414H167.424C166.871 10.0813 165.271 9.6512 162.62 9.6512C160.666 9.6512 159.248 9.82528 158.368 10.1734C157.498 10.5114 157.063 11.0541 157.063 11.8016C157.063 12.3136 157.258 12.7283 157.647 13.0458C158.046 13.353 158.67 13.5834 159.519 13.737C160.378 13.8803 161.515 13.952 162.927 13.952C164.82 13.952 166.487 13.7318 167.931 13.2915L165.136 13.3222V11.7094H171.629L171.783 16.64H168.622ZM61.5646 30.6304C61.6669 30.9274 62.0762 31.1629 62.7925 31.337C63.5191 31.5008 64.4707 31.5827 65.6475 31.5827C66.4252 31.5827 67.0289 31.5622 67.4587 31.5213C67.8987 31.4701 68.2108 31.3933 68.395 31.2909C68.5895 31.1782 68.6867 31.0246 68.6867 30.8301C68.6867 30.6355 68.5332 30.487 68.2262 30.3846C67.9294 30.272 67.4127 30.1952 66.6759 30.1542C65.9494 30.1133 64.88 30.0928 63.4679 30.0928C61.3804 30.0928 59.8659 29.8931 58.9245 29.4938C57.9933 29.0842 57.5277 28.4288 57.5277 27.5277C57.5277 26.3706 58.1314 25.5104 59.3389 24.9472C60.5464 24.3738 62.3934 24.087 64.88 24.087C67.2643 24.087 69.0806 24.4301 70.3291 25.1162C71.5877 25.792 72.217 26.7699 72.217 28.0499H68.2415C68.1904 27.7222 67.8578 27.4714 67.2438 27.2973C66.6401 27.1232 65.801 27.0362 64.7265 27.0362C63.5805 27.0362 62.7414 27.0976 62.2092 27.2205C61.6874 27.3434 61.4264 27.543 61.4264 27.8195C61.4264 28.0243 61.5595 28.1779 61.8255 28.2803C62.1018 28.3827 62.5827 28.4544 63.2683 28.4954C63.9642 28.5363 65.0131 28.5568 66.415 28.5568C67.8987 28.5568 69.0755 28.6387 69.9453 28.8026C70.8151 28.9664 71.4444 29.2275 71.8333 29.5859C72.2324 29.9443 72.4319 30.4307 72.4319 31.0451C72.4319 31.8848 72.1812 32.5606 71.6798 33.0726C71.1886 33.5744 70.416 33.9482 69.362 34.1939C68.3081 34.4294 66.9164 34.5472 65.187 34.5472C63.5805 34.5472 62.1888 34.3936 61.012 34.0864C59.8352 33.769 58.9347 33.3184 58.3105 32.7347C57.6863 32.1408 57.3742 31.4394 57.3742 30.6304H61.5646ZM77.4134 24.4096V34.24H73.5761V24.4096H77.4134ZM94.4347 34.24C94.4347 33.6051 94.624 32.7194 95.0027 31.5827C94.4808 32.4941 93.6161 33.216 92.4086 33.7485C91.2011 34.281 89.7225 34.5472 87.9727 34.5472C85.0563 34.5472 82.8102 34.1683 81.2343 33.4106C79.6584 32.6426 78.8705 31.3062 78.8705 29.4016C78.8705 27.4765 79.6891 26.1146 81.3264 25.3158C82.9739 24.5069 85.3428 24.1024 88.4331 24.1024C91.2267 24.1024 93.3705 24.4915 94.8645 25.2698C96.3585 26.0378 97.1465 27.1283 97.2283 28.5414H93.2375C92.6849 27.6813 91.0835 27.2512 88.4331 27.2512C86.4786 27.2512 85.0614 27.4253 84.1814 27.7734C83.3116 28.1114 82.8767 28.6541 82.8767 29.4016C82.8767 29.9136 83.0711 30.3283 83.4599 30.6458C83.859 30.953 84.4832 31.1834 85.3326 31.337C86.1921 31.4803 87.328 31.552 88.7401 31.552C90.6332 31.552 92.3012 31.3318 93.744 30.8915L90.9504 30.9222V29.3094H97.4432L97.5967 34.24H94.4347ZM116.777 24.4096V34.24H112.94L102.81 28.3725V34.24H98.9722V24.4096H102.81L112.94 30.3846V24.4096H116.777ZM129.545 32.7501H122.423L121.456 34.24H117.235L123.82 24.4096H128.087L134.733 34.24H130.512L129.545 32.7501ZM128.056 30.4461L125.969 27.2205L123.897 30.4461H128.056ZM147.982 31.3216V34.24H136.716H135.196V24.4096H139.033V31.3216H147.982ZM152.638 30.6304C152.741 30.9274 153.15 31.1629 153.866 31.337C154.593 31.5008 155.544 31.5827 156.721 31.5827C157.499 31.5827 158.103 31.5622 158.533 31.5213C158.973 31.4701 159.285 31.3933 159.469 31.2909C159.663 31.1782 159.76 31.0246 159.76 30.8301C159.76 30.6355 159.607 30.487 159.3 30.3846C159.003 30.272 158.486 30.1952 157.75 30.1542C157.023 30.1133 155.954 30.0928 154.542 30.0928C152.454 30.0928 150.94 29.8931 149.998 29.4938C149.067 29.0842 148.601 28.4288 148.601 27.5277C148.601 26.3706 149.205 25.5104 150.413 24.9472C151.62 24.3738 153.467 24.087 155.954 24.087C158.338 24.087 160.154 24.4301 161.403 25.1162C162.661 25.792 163.291 26.7699 163.291 28.0499H159.315C159.264 27.7222 158.932 27.4714 158.318 27.2973C157.714 27.1232 156.875 27.0362 155.8 27.0362C154.654 27.0362 153.815 27.0976 153.283 27.2205C152.761 27.3434 152.5 27.543 152.5 27.8195C152.5 28.0243 152.633 28.1779 152.899 28.2803C153.176 28.3827 153.657 28.4544 154.342 28.4954C155.038 28.5363 156.087 28.5568 157.489 28.5568C158.973 28.5568 160.149 28.6387 161.019 28.8026C161.889 28.9664 162.519 29.2275 162.907 29.5859C163.306 29.9443 163.505 30.4307 163.505 31.0451C163.505 31.8848 163.254 32.5606 162.754 33.0726C162.263 33.5744 161.489 33.9482 160.436 34.1939C159.382 34.4294 157.99 34.5472 156.261 34.5472C154.654 34.5472 153.263 34.3936 152.086 34.0864C150.909 33.769 150.008 33.3184 149.384 32.7347C148.76 32.1408 148.448 31.4394 148.448 30.6304H152.638Z" fill="white"/>
<defs>
<linearGradient id="paint0_linear_565_3383" x1="2.15046e-07" y1="26.653" x2="39.3217" y2="26.653" gradientUnits="userSpaceOnUse">
<stop stop-color="#0012B8"/>
<stop offset="1" stop-color="#00F0FF"/>
</linearGradient>
<linearGradient id="paint1_linear_565_3383" x1="0.486328" y1="9.64624" x2="31.7656" y2="9.64624" gradientUnits="userSpaceOnUse">
<stop stop-color="#0012B8"/>
<stop offset="1" stop-color="#00F0FF"/>
</linearGradient>
<linearGradient id="paint2_linear_565_3383" x1="31.6475" y1="5.82905" x2="50.3653" y2="5.82905" gradientUnits="userSpaceOnUse">
<stop stop-color="#0012B8"/>
<stop offset="1" stop-color="#00F0FF"/>
</linearGradient>
</defs>
</svg>
