<svg width="80" height="20" viewBox="0 0 80 20" fill="none" xmlns="http://www.w3.org/2000/svg"><g clip-path="url(#clip0_1075_43517)"><path d="M65.1523 19.2458V6.56929H69.0368L69.3318 8.19085C70.4133 6.98776 71.8885 6.42188 73.9289 6.42188C77.8134 6.42188 80.0012 8.73058 80.0012 12.8332V19.2458H75.748V13.2018C75.748 10.9668 74.7403 9.81122 72.7487 9.81122C70.6096 9.81122 69.4056 10.9418 69.4056 12.9557V19.2446H65.1523V19.2458Z" fill="#FFFFFF"></path><path d="M58.8609 19.246V6.56949H63.2888V19.246H58.8609ZM61.0624 5.43892C59.7596 5.43892 58.752 4.50569 58.752 3.25266C58.752 1.99964 59.7585 1.06641 61.0624 1.06641C62.3663 1.06641 63.3728 1.99964 63.3728 3.25266C63.3728 4.50569 62.3651 5.43892 61.0624 5.43892Z" fill="#FFFFFF"></path><path d="M43.2832 19.2456V1H56.9519V4.83278H47.8065V7.92849H55.5266V11.5152H47.8065V19.2456H43.2832Z" fill="#FFFFFF"></path><path d="M33.4589 19.2377C28.6405 19.2377 25.4199 16.6579 25.4199 12.7526C25.4199 8.84733 28.6405 6.26758 33.4589 6.26758C38.2772 6.26758 41.474 8.87111 41.474 12.7526C41.474 16.6342 38.2534 19.2377 33.4589 19.2377ZM33.4589 15.8483C35.7455 15.8483 37.147 14.669 37.147 12.7526C37.147 10.8362 35.7455 9.65693 33.4589 9.65693C31.1722 9.65693 29.7469 10.8362 29.7469 12.7526C29.7469 14.669 31.1484 15.8483 33.4589 15.8483Z" fill="#FFFFFF"></path><path d="M19.2188 19.2795V1.02734H23.5853V19.2783H19.2188V19.2795Z" fill="#FFFFFF"></path><path d="M15.3838 2.94336L11.5385 5.83568L6.83398 9.28805V13.051L16.4455 5.89814C16.4455 5.884 16.4479 5.87104 16.4479 5.85689C16.4479 4.67592 16.0932 3.70592 15.3838 2.94454V2.94336Z" fill="#FF8800"></path><path d="M16.7211 11.9873C16.3982 11.3956 15.9103 10.9218 15.2563 10.5647C15.03 10.4409 14.7802 10.3349 14.5115 10.2417L11.6702 12.3633C11.6702 12.3633 11.6738 12.3656 11.6749 12.3668C12.1015 12.6897 12.316 13.1541 12.316 13.7623C12.316 14.3704 12.1074 14.8584 11.6879 15.1707C11.2696 15.4842 10.6426 15.641 9.80591 15.641H4.46443V4.65512H9.51719C10.1795 4.65512 10.698 4.81659 11.0728 5.13835C11.2931 5.32693 11.4463 5.56029 11.5371 5.83491L15.3824 2.94259C15.1514 2.69508 14.8839 2.46879 14.5775 2.26607C13.3318 1.44104 11.5135 1.02734 9.12595 1.02734H0V19.2959H9.04699C11.6973 19.2959 13.7184 18.8515 15.1137 17.9652C16.5078 17.0777 17.2054 15.7907 17.2054 14.1029C17.2054 13.2849 17.044 12.5813 16.7211 11.9885V11.9873Z" fill="#FFFFFF"></path></g><defs><clipPath id="clip0_1075_43517"><rect width="80" height="20" fill="#FFFFFF"></rect></clipPath></defs></svg>